<svg width="23" height="16" viewBox="0 0 23 16" fill="none" xmlns="http://www.w3.org/2000/svg">
<path d="M0.0700684 3.9926C0.0700684 3.37076 0.493188 3.03546 1.33943 2.98668L4.60037 3.00497C4.81923 3.00497 4.96513 3.09642 5.03808 3.27931C5.37366 4.19378 5.74936 4.98328 6.16519 5.64779C6.58101 6.31231 7.1245 7.07741 7.79566 7.94311C7.85402 8.05285 7.94886 8.10772 8.08017 8.10772C8.1823 8.10772 8.26255 8.06504 8.32091 7.97969L8.38657 7.77851L8.40845 4.61444C8.40845 4.39497 8.34644 4.24865 8.22243 4.1755C8.09841 4.10234 7.86861 4.04747 7.53303 4.01089C7.27041 3.97431 7.13909 3.84019 7.13909 3.60852C7.13909 3.55975 7.14639 3.52317 7.16098 3.49879C7.46737 2.70625 8.3428 2.30998 9.78724 2.30998L11.0128 2.29169C11.5673 2.29169 12.0269 2.40752 12.3916 2.63919C12.7564 2.87085 12.9388 3.23664 12.9388 3.73655V7.88824C13.0409 7.94921 13.1357 7.97969 13.2233 7.97969C13.4421 7.97969 13.6318 7.86995 13.7923 7.65048C15.3972 5.77277 16.2654 4.5169 16.3967 3.88286C16.3967 3.87067 16.4113 3.84019 16.4404 3.79142C16.5426 3.60852 16.7104 3.45002 16.9438 3.31589C17.1773 3.18177 17.3815 3.09032 17.5566 3.04155C17.615 3.01717 17.6806 3.00497 17.7536 3.00497H21.1458L21.3647 3.02326C21.6565 3.02326 21.8826 3.1391 22.0431 3.37076C22.1015 3.44392 22.1416 3.52317 22.1635 3.60852C22.1854 3.69387 22.2 3.77923 22.2073 3.86458C22.2146 3.94993 22.2182 3.9987 22.2182 4.01089V4.13892C22.1161 4.63883 21.8571 5.17227 21.4413 5.73924C21.0255 6.30621 20.4966 6.91891 19.8546 7.57732C19.2126 8.23574 18.8114 8.66859 18.6509 8.87587C18.5196 9.02219 18.4539 9.15631 18.4539 9.27824C18.4539 9.37578 18.5123 9.48552 18.629 9.60745L21.8243 12.9727C21.9994 13.1678 22.0869 13.3812 22.0869 13.6128C22.0869 13.8933 21.9556 14.1249 21.693 14.3078C21.4303 14.4907 21.1166 14.5944 20.7519 14.6187L20.3798 14.637H17.0532C17.0386 14.637 17.0095 14.6401 16.9657 14.6462C16.9219 14.6523 16.8927 14.6553 16.8781 14.6553C16.5572 14.6553 16.2581 14.5395 15.9808 14.3078C15.8787 14.2103 15.193 13.4909 13.9236 12.1497C13.8507 12.0643 13.7485 11.9851 13.6172 11.9119C13.5588 12.107 13.4822 12.3874 13.3874 12.7532C13.2926 13.119 13.2233 13.3812 13.1795 13.5397L13.1138 13.8506C12.9679 14.2773 12.6615 14.5334 12.1946 14.6187L11.8883 14.637H9.74347C8.53247 14.637 7.32512 14.1737 6.12142 13.247C4.91771 12.3204 3.83438 11.1224 2.87142 9.65317C1.90845 8.18392 1.01115 6.47386 0.179496 4.52299C0.106544 4.36449 0.0700684 4.18769 0.0700684 3.9926ZM13.2233 8.72956C12.9169 8.72956 12.6397 8.65945 12.3916 8.51923C12.1436 8.37901 12.0196 8.18697 12.0196 7.94311V3.73655C12.0196 3.49269 11.9466 3.31894 11.8007 3.2153C11.6548 3.11166 11.3995 3.05984 11.0347 3.05984L9.78724 3.09642C9.15986 3.09642 8.68567 3.18787 8.36468 3.37076C9.00666 3.62681 9.32764 4.04137 9.32764 4.61444V7.83338C9.29846 8.1382 9.15256 8.3912 8.88993 8.59239C8.62731 8.79357 8.3355 8.89416 8.01451 8.89416C7.5768 8.89416 7.24122 8.71736 7.00778 8.36377C5.86973 6.925 5.02349 5.55939 4.46906 4.26694L4.27209 3.79142L1.36131 3.77313C1.17164 3.77313 1.06586 3.78227 1.04397 3.80056C1.02209 3.81885 1.01115 3.87067 1.01115 3.95602C1.01115 4.06576 1.02574 4.18159 1.05492 4.30352L1.51451 5.32773C2.7401 7.97359 4.07147 10.0586 5.50862 11.5827C6.94577 13.1068 8.35739 13.8689 9.74347 13.8689H11.932C12.0196 13.8689 12.0852 13.8475 12.129 13.8049C12.1728 13.7622 12.2092 13.6799 12.2384 13.558L12.2822 13.3751L12.698 11.7656C12.8147 11.5461 12.9169 11.3998 13.0044 11.3267C13.1649 11.1925 13.3546 11.1255 13.5734 11.1255C13.9236 11.1255 14.2811 11.3023 14.6458 11.6559L16.5061 13.6311C16.6228 13.7896 16.7468 13.8689 16.8781 13.8689H20.4893C20.927 13.8689 21.1458 13.7774 21.1458 13.5945C21.1458 13.5336 21.1239 13.4726 21.0802 13.4116L17.9068 10.1013C17.6587 9.84521 17.5347 9.57087 17.5347 9.27824C17.5347 8.98561 17.6514 8.70517 17.8849 8.43693C18.0746 8.19307 18.443 7.78765 18.9901 7.22068C19.5372 6.65371 20.0151 6.12332 20.4236 5.6295C20.8321 5.13569 21.1021 4.6876 21.2334 4.28523L21.299 4.04747C21.2844 4.02308 21.2771 3.98346 21.2771 3.92859C21.2771 3.87372 21.2698 3.828 21.2553 3.79142H17.8192C17.6004 3.86458 17.4253 3.97431 17.294 4.12063L17.1627 4.46813C16.7979 5.30944 15.8422 6.60799 14.2957 8.36377C13.9893 8.60763 13.6318 8.72956 13.2233 8.72956Z" fill="#666666"/>
</svg>
